<svg width="1440" height="800" viewBox="0 0 1440 800" fill="none" xmlns="http://www.w3.org/2000/svg">
<path fill-rule="evenodd" clip-rule="evenodd" d="M0 689L59.625 693.171C120.375 697.341 239.625 705.682 360 719.798C480.375 734.234 599.625 754.766 720 758.936C840.375 763.107 959.625 750.595 1080 746.746C1200.38 742.575 1319.62 746.746 1380.38 748.671L1440 750.595V800H1380.38C1319.62 800 1200.38 800 1080 800C959.625 800 840.375 800 720 800C599.625 800 480.375 800 360 800C239.625 800 120.375 800 59.625 800H0V689Z" fill="#20DF7F" fill-opacity="0.09"/>
<path fill-rule="evenodd" clip-rule="evenodd" d="M0 733.4L48 742.28C96 751.16 192 768.92 288 764.48C384 760.04 480 733.4 576 715.64C672 697.88 768 689 864 689C960 689 1056 697.88 1152 713.42C1248 728.96 1344 751.16 1392 762.26L1440 773.36V800H1392C1344 800 1248 800 1152 800C1056 800 960 800 864 800C768 800 672 800 576 800C480 800 384 800 288 800C192 800 96 800 48 800H0V733.4Z" fill="#E5E5E5" fill-opacity="0.13"/>
</svg>
